<?xml version="1.0" encoding="utf-8"?>
<!-- Generator: Adobe Illustrator 21.0.0, SVG Export Plug-In . SVG Version: 6.00 Build 0)  -->
<svg version="1.1" id="Camada_1" xmlns="http://www.w3.org/2000/svg" xmlns:xlink="http://www.w3.org/1999/xlink" x="0px" y="0px"
	 viewBox="0 0 788.4 691.9" style="enable-background:new 0 0 788.4 691.9;" xml:space="preserve">
<style type="text/css">
	.st0{fill:#3D3D3F;}
	.st1{fill:#32D87D;}
	.st2{fill:#58585A;}
	.st3{fill:#868789;}
	.st4{clip-path:url(#SVGID_2_);}
	.st5{fill:#E4B595;}
	.st6{fill:#E9BC9A;}
	.st7{fill:#ECE4D9;}
	.st8{fill:#EEC7AA;}
	.st9{fill:#FAF9F8;}
	.st10{fill:#4C7083;}
	.st11{fill:#FFFFFF;}
</style>
<g>
	<g>
		<g>
			<g>
				<g>
					<g>
						<path class="st0" d="M624.7,0c16,0,29,13.1,29,29V474c0,15.9-13,29-29,29H29c-16,0-29-13.1-29-29V29c0-16,13.1-29,29-29H624.7
							z"/>
					</g>
					<g>
						<rect x="55.6" y="48.8" class="st1" width="542.5" height="405.4"/>
					</g>
					<g>
						<path class="st2" d="M29.8,245c3.6,0,6.4,2.9,6.4,6.5c0,3.6-2.9,6.5-6.4,6.5c-3.6,0-6.4-2.9-6.4-6.5
							C23.4,247.9,26.3,245,29.8,245z"/>
					</g>
					<g>
						<path class="st3" d="M623.9,240.2c6.2,0,11.3,5,11.3,11.3c0,6.2-5.1,11.3-11.3,11.3c-6.2,0-11.3-5.1-11.3-11.3
							C612.6,245.3,617.6,240.2,623.9,240.2z"/>
					</g>
				</g>
			</g>
		</g>
	</g>
	<g>
		<defs>
			<rect id="SVGID_1_" x="333.5" y="153" width="454.9" height="538.9"/>
		</defs>
		<clipPath id="SVGID_2_">
			<use xlink:href="#SVGID_1_"  style="overflow:visible;"/>
		</clipPath>
		<g class="st4">
			<path class="st5" d="M607.4,391.2l-0.1,0c-4,0.8-7.9-1.7-8.7-5.7L588,331.6c-0.8-3.9,1.8-7.7,5.8-8.5l0.1,0
				c4-0.8,7.9,1.7,8.7,5.7l10.7,53.9C614,386.6,611.4,390.4,607.4,391.2z"/>
			<path class="st5" d="M547.9,413.3l-0.1,0c-4,0.8-7.9-1.7-8.7-5.7l-14.6-74.2c-0.8-3.9,1.8-7.7,5.8-8.5l0.1,0
				c4-0.8,7.9,1.7,8.7,5.7l14.6,74.2C554.5,408.7,551.9,412.5,547.9,413.3z"/>
			<path class="st5" d="M668.3,373.8l-0.1,0c-4,0.8-7.9-1.7-8.7-5.7l-6.7-33.7c-0.8-3.9,1.8-7.7,5.8-8.5l0.1,0
				c4-0.8,7.9,1.7,8.7,5.7l6.7,33.7C674.9,369.2,672.3,373,668.3,373.8z"/>
			<g>
				<path class="st6" d="M562.8,558.1l-0.4,0.3c-12.1,9.5-30,6.8-40.1-6L413,413.6c-15.4-21.3-7-30.9,5.1-40.3l0.4-0.3
					c15.8-9.8,41.5,8.6,52.5,23l95.3,121.8C576.4,530.5,574.8,548.6,562.8,558.1z"/>
				<path class="st7" d="M407.8,381.9c-1.8,1.2-3.3,3-4.2,5c-1.6,3.5-2.5,9.2,1.8,15.6c7,10.4,18.2,26.4,20.5,27.2
					c2.4,0.8,8.1-1.1,11.7-7.6s3.9-8.4,1.3-14.2c-2.6-5.8-17.9-23.3-19.7-24.7C417.6,381.9,413.4,378.2,407.8,381.9z"/>
			</g>
			<polygon class="st5" points="508.6,535.1 479.2,406.4 487.7,417.3 521.7,551.6 			"/>
			<g>
				<path class="st8" d="M729.3,374.7c0-0.1-0.1-0.2-0.1-0.4l-11.5-57.9c-3-15.2-18-25-33.6-21.9l-0.6,0.1
					c-15.5,3.1-25.6,17.9-22.6,33.1l6.8,34.3c-1.5,0.1-3,0.2-4.6,0.3l-10.9-54.9c-3-15.2-18-25-33.6-21.9l-0.6,0.1
					c-15.5,3.1-25.6,17.9-22.6,33.1l10.2,51.3c-0.5,0.1-1,0.2-1.5,0.3l-2.4,0.5c-0.2,0-0.3,0.1-0.5,0.1l-13.8-69.5
					c-3-15.2-18-25-33.6-21.9l-0.6,0.1c-15.5,3.1-25.6,17.9-22.6,33.1l14.5,72.9c-1.7,0.6-3.3,1.1-4.9,1.7l-33.4-168
					c-3.6-18.2-19.1-30.5-34.5-27.5l-0.6,0.1c-15.5,3.1-25,20.3-21.4,38.6l36.9,185.9c0.4,1.8,0.4,3.6,0.5,5.4c0,0.3,0.1,0.7,0.1,1
					l20.3,102.2c4.8,24,23.5,42.2,46.6,46.6l33.2,167.3l168.6-33.5l-33.1-166.5c5.7-3,10.5-6.3,14.4-10.2
					c12.1-12,15.3-32.7,12.5-46.8L729.3,374.7z"/>
				<path class="st7" d="M482.6,239.6l-0.4,0.1c-11.3,2.3-21.3,0.3-24-13.2l-2.3-11.7c-2.7-13.6,5.4-20.8,16.8-23.1l0.4-0.1
					c11.3-2.3,21.6,1.3,24.3,14.9l2.3,11.7C502.4,231.8,493.9,237.4,482.6,239.6z"/>
			</g>
			<g>
				<path class="st9" d="M753.2,628.5L563,665.7c-1.2,0.2-2.3-0.5-2.5-1.7l-8.7-44.5c-0.2-1.2,0.5-2.3,1.7-2.5l190.2-37.3
					c1.2-0.2,2.3,0.5,2.5,1.7l8.7,44.5C755.1,627.1,754.3,628.3,753.2,628.5z"/>
				
					<ellipse transform="matrix(0.9814 -0.1922 0.1922 0.9814 -111.1683 122.2286)" class="st10" cx="574.4" cy="634.1" rx="7.8" ry="7.8"/>
			</g>
			<path class="st10" d="M775.7,702l-205.3,40.2c-2.2,0.4-4.3-1-4.8-3.2l-15.2-77.5c-0.4-2.2,1-4.4,3.2-4.8l205.3-40.2
				c2.2-0.4,4.3,1,4.8,3.2l15.2,77.5C779.3,699.4,777.9,701.6,775.7,702z"/>
		</g>
	</g>
	<g id="Camada_2">
		<g id="Camada_1-2">
			<path class="st11" d="M326.4,187.1l68.6,128.7H258.8L326.4,187.1z M303.4,245.5c6.8,5,12.6,9.5,18.7,13.7
				c15.4,10.7,16.6,10.5,33-3.4L326.5,202L303.4,245.5z M281.9,305.8l0.6,2.2h93c-12.3-11.1-25.2-20.3-38.2-29.2
				c-1.4-0.9-3.9-0.9-5.4-0.2C315.2,287.6,298.5,296.8,281.9,305.8L281.9,305.8z M275.9,297.5l1.8,2.2l50.1-27.6l-28-19.8
				L275.9,297.5z M373.1,295l2-1.8l-15.8-29.6l-17.2,9.5L373.1,295z"/>
		</g>
	</g>
</g>
</svg>
