<svg xmlns="http://www.w3.org/2000/svg" viewBox="0 0 319.2 281.69"><defs><style>.cls-1{fill:#262626;}.cls-2{fill:#32d87d;}</style></defs><title>Ativo 1</title><g id="Camada_2" data-name="Camada 2"><g id="Camada_1-2" data-name="Camada 1"><path class="cls-1" d="M0,281.69V227.2H8.37V275.4H37.72v6.29Z"/><path class="cls-1" d="M52.16,281.69V227.2H89v6.29H60.52V250H84.65v6.29H60.52V275.4H90.93v6.29Z"/><path class="cls-1" d="M95.86,281.69,117.16,254,97.69,227.2h9.92l14.68,20.22,15.62-20.22h8.15l-19.85,25.64,20.95,28.85h-9.92l-16.11-22.18L104,281.69Z"/><path class="cls-1" d="M199.72,246.78a10.8,10.8,0,0,0-1.74-3.89,12.93,12.93,0,0,0-3.19-3.14,15.61,15.61,0,0,0-4.4-2.1,18,18,0,0,0-5.33-.76,19.57,19.57,0,0,0-7.33,1.32,14.87,14.87,0,0,0-5.61,3.89,17.56,17.56,0,0,0-3.57,6.41,28.88,28.88,0,0,0-1.25,8.94,29.29,29.29,0,0,0,1.25,9,18.16,18.16,0,0,0,3.57,6.52,15,15,0,0,0,5.56,4,18.58,18.58,0,0,0,7.24,1.36,17.11,17.11,0,0,0,9.94-2.7,11.62,11.62,0,0,0,4.84-7.88h3.53a16.13,16.13,0,0,1-2.08,5.92,15.28,15.28,0,0,1-3.95,4.4,17.42,17.42,0,0,1-5.48,2.72,23.18,23.18,0,0,1-6.71.93,21.86,21.86,0,0,1-8.86-1.72,18.83,18.83,0,0,1-6.69-4.86,21.77,21.77,0,0,1-4.25-7.62,31.77,31.77,0,0,1-1.49-10,31,31,0,0,1,1.49-9.94A21.46,21.46,0,0,1,169.5,240a18.71,18.71,0,0,1,6.71-4.8,22.23,22.23,0,0,1,8.81-1.68,20.75,20.75,0,0,1,6.39,1,19.21,19.21,0,0,1,5.46,2.74,16.91,16.91,0,0,1,4.08,4.2,15.26,15.26,0,0,1,2.29,5.37Z"/><path class="cls-1" d="M233.27,233.48a22.44,22.44,0,0,1,8.79,1.7A19.83,19.83,0,0,1,249,240a22.47,22.47,0,0,1,4.54,7.56,28.22,28.22,0,0,1,1.64,9.85,28.77,28.77,0,0,1-1.61,9.85,22.83,22.83,0,0,1-4.52,7.67,20.19,20.19,0,0,1-6.92,5,23.18,23.18,0,0,1-17.73,0,20.27,20.27,0,0,1-6.94-4.95,22.58,22.58,0,0,1-4.52-7.64,28.89,28.89,0,0,1-1.61-9.9,28.34,28.34,0,0,1,1.64-9.9,22,22,0,0,1,4.57-7.54,20.22,20.22,0,0,1,6.94-4.82A22.39,22.39,0,0,1,233.27,233.48Zm0,44.81a19.29,19.29,0,0,0,7.37-1.38,16.14,16.14,0,0,0,5.84-4.06,18.64,18.64,0,0,0,3.82-6.56,26.75,26.75,0,0,0,1.36-8.86,26,26,0,0,0-1.38-8.83,18.46,18.46,0,0,0-3.82-6.43,15.94,15.94,0,0,0-5.78-3.95,19.38,19.38,0,0,0-7.28-1.34,19.67,19.67,0,0,0-7.41,1.36,16.29,16.29,0,0,0-5.84,4,18.28,18.28,0,0,0-3.84,6.43,25.81,25.81,0,0,0-1.38,8.79,26.73,26.73,0,0,0,1.36,8.86,18.79,18.79,0,0,0,3.8,6.56,15.94,15.94,0,0,0,5.82,4.06A19.29,19.29,0,0,0,233.23,278.29Z"/><path class="cls-1" d="M269.84,281.69h-3.4V235.18h3.4Z"/><path class="cls-1" d="M319.2,281.69h-4.46l-28.37-42.47v42.47H283V235.18h4.67l28.16,42.39V235.18h3.4Z"/><path class="cls-2" d="M158.93,0l100,187.69H60.29Zm-33.5,85.09c9.86,7.23,18.45,13.81,27.29,19.95,22.48,15.6,24.16,15.38,48.16-4.9L159.07,21.64Zm-31.4,88,.83,3.26H230.44c-17.94-16.26-36.71-29.64-55.69-42.62-2-1.35-5.67-1.37-7.83-.22C142.54,146.54,118.31,159.87,94,173.12Zm-8.67-12.07,2.6,3.21L161.08,124,120.31,95.12Zm141.72-3.73,2.93-2.59-23.09-43.11-25.13,13.87Z"/></g></g></svg>