<svg xmlns="http://www.w3.org/2000/svg" viewBox="0 0 702.97 187.69"><defs><style>.cls-1{fill:#262626;}.cls-2{fill:#32d87d;}</style></defs><title>Ativo 4</title><g id="Camada_2" data-name="Camada 2"><g id="Camada_1-2" data-name="Camada 1"><path class="cls-1" d="M237.71,187.69V108.26h12.2v70.26h42.78v9.16Z"/><path class="cls-1" d="M313.73,187.69V108.26h53.67v9.16H325.93v24.08h35.16v9.16H325.93v27.86h44.32v9.16Z"/><path class="cls-1" d="M377.44,187.69l31.05-40.32L380.1,108.26h14.46L416,137.74l22.77-29.47h11.89l-28.93,37.37,30.54,42.06H437.76l-23.47-32.34-25,32.34Z"/><path class="cls-1" d="M528.82,136.8a15.74,15.74,0,0,0-2.54-5.66,18.85,18.85,0,0,0-4.64-4.58,22.75,22.75,0,0,0-6.41-3.06,26.29,26.29,0,0,0-7.77-1.11,28.53,28.53,0,0,0-10.68,1.92,21.67,21.67,0,0,0-8.17,5.66,25.59,25.59,0,0,0-5.2,9.35,42.1,42.1,0,0,0-1.83,13,42.7,42.7,0,0,0,1.83,13.09,26.47,26.47,0,0,0,5.2,9.5,21.91,21.91,0,0,0,8.11,5.82,27.09,27.09,0,0,0,10.56,2q8.79,0,14.49-3.93a16.94,16.94,0,0,0,7.06-11.48H534a23.52,23.52,0,0,1-3,8.64,22.27,22.27,0,0,1-5.76,6.41,25.38,25.38,0,0,1-8,4,33.79,33.79,0,0,1-9.78,1.36,31.86,31.86,0,0,1-12.91-2.51,27.45,27.45,0,0,1-9.75-7.09A31.73,31.73,0,0,1,478.56,167a46.31,46.31,0,0,1-2.17-14.64,45.25,45.25,0,0,1,2.17-14.49,31.28,31.28,0,0,1,6.22-11,27.27,27.27,0,0,1,9.78-7,32.4,32.4,0,0,1,12.85-2.45,30.24,30.24,0,0,1,9.32,1.42,28,28,0,0,1,8,4,24.65,24.65,0,0,1,5.94,6.13A22.24,22.24,0,0,1,534,136.8Z"/><path class="cls-1" d="M577.73,117.43a32.71,32.71,0,0,1,12.81,2.48A28.9,28.9,0,0,1,600.67,127a32.75,32.75,0,0,1,6.62,11,41.14,41.14,0,0,1,2.38,14.36,41.94,41.94,0,0,1-2.35,14.36,33.28,33.28,0,0,1-6.59,11.17,29.43,29.43,0,0,1-10.09,7.24,33.79,33.79,0,0,1-25.85,0,29.55,29.55,0,0,1-10.12-7.21,32.91,32.91,0,0,1-6.59-11.14,42.11,42.11,0,0,1-2.35-14.42,41.31,41.31,0,0,1,2.38-14.42,32.11,32.11,0,0,1,6.65-11,29.48,29.48,0,0,1,10.12-7A32.64,32.64,0,0,1,577.73,117.43Zm-.06,65.31a28.12,28.12,0,0,0,10.74-2,23.53,23.53,0,0,0,8.51-5.91,27.17,27.17,0,0,0,5.57-9.56,39,39,0,0,0,2-12.91,37.85,37.85,0,0,0-2-12.88,26.91,26.91,0,0,0-5.57-9.38,23.24,23.24,0,0,0-8.42-5.76,28.25,28.25,0,0,0-10.62-2,28.67,28.67,0,0,0-10.8,2,23.74,23.74,0,0,0-8.51,5.79,26.65,26.65,0,0,0-5.6,9.38,37.63,37.63,0,0,0-2,12.81,39,39,0,0,0,2,12.91,27.39,27.39,0,0,0,5.54,9.56,23.24,23.24,0,0,0,8.48,5.91A28.12,28.12,0,0,0,577.67,182.74Z"/><path class="cls-1" d="M631,187.69h-5V119.9h5Z"/><path class="cls-1" d="M703,187.69h-6.5l-41.35-61.91v61.91h-5V119.9H657l41,61.78V119.9h5Z"/><path class="cls-2" d="M98.64,0l100,187.69H0ZM65.15,85.09C75,92.31,83.59,98.9,92.43,105c22.48,15.6,24.16,15.38,48.16-4.9L98.78,21.64Zm-31.4,88,.83,3.26H170.16c-17.94-16.26-36.71-29.64-55.69-42.62-2-1.35-5.67-1.37-7.83-.22C82.26,146.54,58,159.87,33.75,173.12Zm-8.67-12.07,2.6,3.21L100.79,124,60,95.12Zm141.72-3.73,2.93-2.59-23.09-43.11L121.5,125.49Z"/></g></g></svg>